<?xml version="1.0" encoding="utf-8"?>
<!-- Generator: Adobe Illustrator 25.0.0, SVG Export Plug-In . SVG Version: 6.00 Build 0)  -->
<svg version="1.1" id="圖層_1" xmlns="http://www.w3.org/2000/svg" xmlns:xlink="http://www.w3.org/1999/xlink" x="0px" y="0px"
	 viewBox="0 0 141.7 141.7" style="enable-background:new 0 0 141.7 141.7;" xml:space="preserve">
<style type="text/css">
	.st0{fill:url(#SVGID_1_);}
	.st1{fill:none;stroke:#DEDEDE;stroke-width:0.6636;stroke-miterlimit:10;}
	.st2{filter:url(#Adobe_OpacityMaskFilter);}
	.st3{opacity:0.8;mask:url(#SVGID_2_);}
	.st4{fill:#FFFFFF;}
	.st5{fill:none;stroke:#FFFFFF;stroke-width:0.6636;stroke-miterlimit:10;}
	.st6{fill:url(#SVGID_3_);}
	.st7{fill:none;stroke:#DEDEDE;stroke-width:0.1184;stroke-miterlimit:10;}
	.st8{filter:url(#Adobe_OpacityMaskFilter_1_);}
	.st9{opacity:0.8;mask:url(#SVGID_4_);}
	.st10{fill:none;stroke:#FFFFFF;stroke-width:0.1184;stroke-miterlimit:10;}
</style>
<g>
	
		<image style="overflow:visible;opacity:0.1;" width="134" height="134" xlink:href="3A3E117BD965EC91.png"  transform="matrix(1 0 0 1 11.7142 11.4442)">
	</image>
	<g>
		<g>
			<radialGradient id="SVGID_1_" cx="49.1271" cy="40.7456" r="83.6843" gradientUnits="userSpaceOnUse">
				<stop  offset="0.2381" style="stop-color:#FFFFFF"/>
				<stop  offset="0.7998" style="stop-color:#D4D5D5"/>
				<stop  offset="1" style="stop-color:#FFFFFF"/>
			</radialGradient>
			<path class="st0" d="M70.9,125.3L70.9,125.3c-30,0-54.5-24.5-54.5-54.5v0c0-30,24.5-54.5,54.5-54.5h0c30,0,54.5,24.5,54.5,54.5v0
				C125.3,100.8,100.8,125.3,70.9,125.3z"/>
			<path class="st1" d="M70.9,125.3L70.9,125.3c-30,0-54.5-24.5-54.5-54.5v0c0-30,24.5-54.5,54.5-54.5h0c30,0,54.5,24.5,54.5,54.5v0
				C125.3,100.8,100.8,125.3,70.9,125.3z"/>
		</g>
		<defs>
			<filter id="Adobe_OpacityMaskFilter" filterUnits="userSpaceOnUse" x="16.1" y="16.1" width="109.6" height="109.6">
				
					<feColorMatrix  type="matrix" values="-1 0 0 0 1  0 -1 0 0 1  0 0 -1 0 1  0 0 0 1 0" color-interpolation-filters="sRGB" result="source"/>
			</filter>
		</defs>
		<mask maskUnits="userSpaceOnUse" x="16.1" y="16.1" width="109.6" height="109.6" id="SVGID_2_">
			<g class="st2">
				
					<image style="overflow:visible;" width="114" height="114" xlink:href="3A3E117BD965EC97.jpg"  transform="matrix(1 0 0 1 14 13.73)">
				</image>
			</g>
		</mask>
		<g class="st3">
			<path class="st4" d="M70.9,125.3L70.9,125.3c-30,0-54.5-24.5-54.5-54.5v0c0-30,24.5-54.5,54.5-54.5h0c30,0,54.5,24.5,54.5,54.5v0
				C125.3,100.8,100.8,125.3,70.9,125.3z"/>
			<path class="st5" d="M70.9,125.3L70.9,125.3c-30,0-54.5-24.5-54.5-54.5v0c0-30,24.5-54.5,54.5-54.5h0c30,0,54.5,24.5,54.5,54.5v0
				C125.3,100.8,100.8,125.3,70.9,125.3z"/>
		</g>
	</g>
</g>
<g>
	
		<image style="overflow:visible;opacity:0.1;" width="25" height="25" xlink:href="3A3E117BD965EC92.png"  transform="matrix(1 0 0 1 34.9863 107.7163)">
	</image>
	<g>
		<g>
			<radialGradient id="SVGID_3_" cx="42.0691" cy="113.2514" r="14.9313" gradientUnits="userSpaceOnUse">
				<stop  offset="0.2381" style="stop-color:#FFFFFF"/>
				<stop  offset="0.7998" style="stop-color:#F1F2F2"/>
				<stop  offset="1" style="stop-color:#FFFFFF"/>
			</radialGradient>
			<path class="st6" d="M45.9,128.3L45.9,128.3c-5.3,0-9.7-4.4-9.7-9.7v0c0-5.3,4.4-9.7,9.7-9.7h0c5.3,0,9.7,4.4,9.7,9.7v0
				C55.7,124,51.3,128.3,45.9,128.3z"/>
			<path class="st7" d="M45.9,128.3L45.9,128.3c-5.3,0-9.7-4.4-9.7-9.7v0c0-5.3,4.4-9.7,9.7-9.7h0c5.3,0,9.7,4.4,9.7,9.7v0
				C55.7,124,51.3,128.3,45.9,128.3z"/>
		</g>
		<defs>
			<filter id="Adobe_OpacityMaskFilter_1_" filterUnits="userSpaceOnUse" x="36.2" y="108.8" width="19.6" height="19.6">
				
					<feColorMatrix  type="matrix" values="-1 0 0 0 1  0 -1 0 0 1  0 0 -1 0 1  0 0 0 1 0" color-interpolation-filters="sRGB" result="source"/>
			</filter>
		</defs>
		<mask maskUnits="userSpaceOnUse" x="36.2" y="108.8" width="19.6" height="19.6" id="SVGID_4_">
			<g class="st8">
				
					<image style="overflow:visible;" width="24" height="24" xlink:href="3A3E117BD965EC93.jpg"  transform="matrix(1 0 0 1 34 106.73)">
				</image>
			</g>
		</mask>
		<g class="st9">
			<path class="st4" d="M45.9,128.3L45.9,128.3c-5.3,0-9.7-4.4-9.7-9.7v0c0-5.3,4.4-9.7,9.7-9.7h0c5.3,0,9.7,4.4,9.7,9.7v0
				C55.7,124,51.3,128.3,45.9,128.3z"/>
			<path class="st10" d="M45.9,128.3L45.9,128.3c-5.3,0-9.7-4.4-9.7-9.7v0c0-5.3,4.4-9.7,9.7-9.7h0c5.3,0,9.7,4.4,9.7,9.7v0
				C55.7,124,51.3,128.3,45.9,128.3z"/>
		</g>
	</g>
</g>
</svg>
